<svg width="10749" height="1574" viewBox="0 0 10749 1574" fill="none" xmlns="http://www.w3.org/2000/svg">
<path d="M715.029 1192.6V808.027C715.029 801.046 698.684 758.841 693.183 751.071C656.327 699.321 556.92 706.106 525.643 759.867C522.304 765.586 510.752 795.721 510.752 800.138V1192.6H357.515V811.972C357.515 805.187 349.696 779.707 346.474 771.779C318.694 703.502 203.256 692.221 167.382 763.062C164.75 768.268 153.237 800.77 153.237 804.083V1192.6H0V752.806C0 729.929 37.3271 663.428 53.5545 644.85C116.107 573.142 237.321 557.167 325.256 580.123C374.567 592.982 411.265 625.602 438.102 667.924C487.138 583.2 569.729 565.924 662.221 573.181C772.434 581.859 864.416 675.34 864.416 788.305V1186.68L858.522 1192.6H715.029Z" fill="url(#paint0_linear_595_223)"/>
<path d="M2184.54 340.633V1192.61H2027.37V1133.45L1987.8 1166.7C1712.96 1295.24 1550.37 1080.31 1580.55 813.086C1603.34 610.939 1804.63 509.688 1984.23 602.892C1999.04 610.584 2011.38 623.916 2027.37 628.609V350.534C2027.37 349.232 2032.56 344.538 2031.3 340.673H2184.54V340.633ZM1857.55 700.672C1690.29 721.025 1683.8 1019.81 1830.83 1060.55C1891.85 1077.47 1986.66 1066.83 2015.66 1001.43C2031.77 965.14 2031.97 835.135 2026.9 792.733C2017.19 711.44 1925.64 692.429 1857.51 700.712L1857.55 700.672Z" fill="url(#paint1_linear_595_223)"/>
<path d="M4023.39 368.203V1190.6L4017.49 1196.51H3874.08V1133.4C3768.97 1243.77 3583.71 1221.92 3498.33 1098.42C3405.25 963.798 3416.02 697.122 3566.43 605.652C3639.74 561.042 3762.49 555.756 3836.05 601.629C3848.89 609.636 3859.62 624.191 3874.08 628.53V368.203H4023.39ZM3712.04 700.553C3544.31 723.154 3550.67 1044.58 3704.18 1065.33C3764.3 1073.45 3836.75 1063.75 3862.41 1001.39C3878.95 961.195 3879.54 824.366 3869.05 781.451C3851.09 708.087 3778.68 691.56 3712 700.514L3712.04 700.553Z" fill="url(#paint2_linear_595_223)"/>
<path d="M996.312 1115.37C845.078 957.798 906.531 643.553 1126.76 582.376C1391.66 508.815 1596.57 722.834 1525.57 986.671C1464 1215.48 1154.26 1279.97 996.312 1115.41V1115.37ZM1197.45 712.5C1033.21 732.498 1021.03 1020.99 1178.63 1060.51C1277.09 1085.2 1364.75 1036.13 1382.51 933.777C1405.46 801.405 1341.02 695.027 1197.45 712.5Z" fill="url(#paint3_linear_595_223)"/>
<path d="M3059.96 570.589C3197.56 557.731 3326.12 609.323 3382.39 741.537C3465.25 936.269 3370.21 1182.32 3144.75 1203.97C2696.4 1246.96 2685.04 605.654 3059.96 570.589ZM3087.43 708.602C2969.94 718.62 2938.47 818.688 2946.64 922.542C2961.42 1109.82 3236.03 1111.83 3260.11 933.232C3276.81 809.577 3227.42 696.69 3087.43 708.641V708.602Z" fill="url(#paint4_linear_595_223)"/>
<path d="M4898.72 570.447C5069.52 552.264 5216.36 632.65 5248.07 809.237C5283.43 1006.22 5185.24 1192.71 4972.51 1204.58C4553.39 1227.97 4547.1 607.879 4898.76 570.447H4898.72ZM4926.15 708.42C4750.48 731.061 4750.16 1044.28 4929.1 1062.35C5065.95 1076.15 5119.78 976.201 5107.36 851.836C5097.58 753.741 5023.71 695.838 4926.15 708.381V708.42Z" fill="url(#paint5_linear_595_223)"/>
<path d="M4231.64 581.222V981.572C4231.64 986.976 4244.01 1014.27 4248.02 1020.35C4283.5 1074.34 4426.56 1073.83 4450.84 1008.35C4452.89 1002.83 4459.53 977.589 4459.53 973.684V581.222H4604.91V1013.13C4604.91 1049.73 4570.53 1115.96 4544.2 1141.52C4458.31 1224.86 4229 1224.9 4143.07 1141.52C4117.26 1116.47 4082.37 1048.98 4082.37 1013.13V581.222H4231.68H4231.64Z" fill="url(#paint6_linear_595_223)"/>
<path d="M2754.26 581.236V1013.14C2754.26 1061.73 2710.69 1134.98 2671.51 1162.79C2597.21 1215.52 2404.05 1215.45 2325.94 1170.99C2286.57 1148.59 2231.72 1079.37 2231.72 1032.86V703.51H2377.1C2378.91 710.728 2380.64 717.434 2381.22 725.007C2387.71 807.562 2371.91 904.829 2381.03 985.53C2382.4 997.679 2391.4 1021.46 2398.87 1030.73C2427.86 1066.67 2552.93 1066.67 2585.54 1036.96C2591.44 1031.6 2608.92 1003.71 2608.92 997.324V581.196H2754.3L2754.26 581.236Z" fill="url(#paint7_linear_595_223)"/>
<path d="M2231.68 640.377C2233.96 626.178 2228.46 612.885 2227.6 599.12C2226.03 574.625 2223.86 481.263 2229.52 462.685C2246.42 407.228 2379.18 478.936 2388.85 393.856C2395.37 336.23 2383.31 268.111 2389.71 209.34C2393.33 193.011 2411.52 188.001 2425.98 186.581C2466.61 182.677 2563.19 182.045 2603.07 186.7C2621.26 188.83 2630.45 198.138 2632.54 216.282C2639.26 274.737 2627.43 345.696 2632.38 405.61C2630.26 416.812 2613.64 429.395 2602.79 431.13C2556.04 438.546 2462.99 419.771 2424.21 437.244C2407.91 444.62 2402.64 455.348 2400.68 472.782C2395.61 517.393 2407.24 575.454 2400.44 618.486C2399.54 624.284 2391.25 640.417 2386.92 640.417H2231.72L2231.68 640.377Z" fill="url(#paint8_linear_595_223)"/>
<path d="M2808.17 165.962C2803.81 170.341 2790.33 174.324 2783.81 175.074C2759.29 177.795 2689.47 178.348 2665.62 175.192C2657.21 174.048 2645.5 166.791 2642.36 159.099C2638.59 150.027 2638.08 41.9919 2640.08 26.8457C2641.22 18.4048 2648.45 6.65061 2656.11 3.49514C2666.02 -0.646408 2771.2 -0.567473 2787.74 1.32581C2801.26 2.90354 2808.25 6.4534 2813.08 19.2725C2819.65 36.7065 2819.57 120.129 2817.21 141.547C2816.5 148.094 2812.49 161.624 2808.13 166.002L2808.17 165.962Z" fill="url(#paint9_linear_595_223)"/>
<path d="M6059.9 1068.27H5782.96L5731.94 1209.47H5644.49L5874.06 578.158H5969.71L6198.37 1209.47H6110.91L6059.9 1068.27ZM6036.21 1000.86L5921.43 680.189L5806.64 1000.86H6036.21ZM6504.3 702.052C6547.42 702.052 6585.08 711.466 6617.27 730.293C6650.06 749.12 6674.35 772.806 6690.15 801.35V710.251H6773.96V1220.41C6773.96 1265.95 6764.24 1306.34 6744.8 1341.57C6725.37 1377.4 6697.43 1405.34 6660.99 1425.38C6625.16 1445.42 6583.26 1455.44 6535.28 1455.44C6469.69 1455.44 6415.03 1439.95 6371.3 1408.98C6327.57 1378.01 6301.76 1335.8 6293.87 1282.35H6375.85C6384.96 1312.72 6403.79 1337.01 6432.34 1355.23C6460.88 1374.06 6495.19 1383.47 6535.28 1383.47C6580.83 1383.47 6617.87 1369.2 6646.42 1340.66C6675.57 1312.11 6690.15 1272.03 6690.15 1220.41V1115.64C6673.75 1144.79 6649.45 1169.09 6617.27 1188.52C6585.08 1207.95 6547.42 1217.67 6504.3 1217.67C6459.97 1217.67 6419.58 1206.74 6383.14 1184.88C6347.31 1163.01 6319.07 1132.34 6298.42 1092.87C6277.77 1053.39 6267.45 1008.45 6267.45 958.04C6267.45 907.025 6277.77 862.387 6298.42 824.125C6319.07 785.256 6347.31 755.194 6383.14 733.937C6419.58 712.681 6459.97 702.052 6504.3 702.052ZM6690.15 958.951C6690.15 921.297 6682.55 888.502 6667.37 860.565C6652.19 832.628 6631.54 811.371 6605.42 796.795C6579.92 781.612 6551.67 774.021 6520.7 774.021C6489.73 774.021 6461.49 781.309 6435.98 795.884C6410.47 810.46 6390.13 831.717 6374.94 859.654C6359.76 887.591 6352.17 920.386 6352.17 958.04C6352.17 996.302 6359.76 1029.7 6374.94 1058.25C6390.13 1086.19 6410.47 1107.75 6435.98 1122.93C6461.49 1137.51 6489.73 1144.79 6520.7 1144.79C6551.67 1144.79 6579.92 1137.51 6605.42 1122.93C6631.54 1107.75 6652.19 1086.19 6667.37 1058.25C6682.55 1029.7 6690.15 996.605 6690.15 958.951ZM7369.54 940.732C7369.54 956.522 7368.63 973.223 7366.81 990.836H6967.8C6970.83 1040.03 6987.54 1078.59 7017.9 1106.53C7048.88 1133.86 7086.23 1147.53 7129.95 1147.53C7165.79 1147.53 7195.54 1139.33 7219.23 1122.93C7243.52 1105.92 7260.53 1083.45 7270.25 1055.52H7359.52C7346.16 1103.49 7319.44 1142.67 7279.36 1173.03C7239.27 1202.79 7189.47 1217.67 7129.95 1217.67C7082.58 1217.67 7040.07 1207.04 7002.41 1185.79C6965.37 1164.53 6936.22 1134.47 6914.96 1095.6C6893.7 1056.12 6883.08 1010.57 6883.08 958.951C6883.08 907.329 6893.4 862.083 6914.05 823.214C6934.7 784.345 6963.55 754.586 7000.59 733.937C7038.25 712.681 7081.37 702.052 7129.95 702.052C7177.32 702.052 7219.23 712.377 7255.67 733.026C7292.11 753.675 7320.05 782.22 7339.48 818.659C7359.52 854.491 7369.54 895.182 7369.54 940.732ZM7283.91 923.423C7283.91 891.842 7276.93 864.816 7262.96 842.345C7248.99 819.266 7229.86 801.958 7205.57 790.418C7181.88 778.272 7155.46 772.199 7126.31 772.199C7084.4 772.199 7048.57 785.56 7018.81 812.282C6989.66 839.004 6972.96 876.051 6968.71 923.423H7283.91ZM7722.2 701.142C7782.94 701.142 7832.13 719.665 7869.78 756.712C7907.44 793.151 7926.26 845.989 7926.26 915.224V1209.47H7844.28V927.067C7844.28 877.266 7831.82 839.308 7806.92 813.193C7782.02 786.471 7748.01 773.11 7704.89 773.11C7661.17 773.11 7626.25 786.774 7600.13 814.104C7574.62 841.434 7561.87 881.214 7561.87 933.444V1209.47H7478.97V710.251H7561.87V781.309C7578.27 755.801 7600.43 736.063 7628.37 722.094C7656.92 708.126 7688.19 701.142 7722.2 701.142ZM8162.8 778.576V1072.82C8162.8 1097.12 8167.96 1114.43 8178.29 1124.75C8188.61 1134.47 8206.53 1139.33 8232.04 1139.33H8293.07V1209.47H8218.37C8172.21 1209.47 8137.6 1198.84 8114.52 1177.59C8091.44 1156.33 8079.9 1121.41 8079.9 1072.82V778.576H8015.22V710.251H8079.9V584.535H8162.8V710.251H8293.07V778.576H8162.8ZM8995.32 574.514V641.927H8719.29V856.01H8943.39V923.423H8719.29V1209.47H8636.39V574.514H8995.32ZM9178.34 1142.06H9400.62V1209.47H9095.44V574.514H9178.34V1142.06ZM9706.39 1217.67C9659.62 1217.67 9617.11 1207.04 9578.85 1185.79C9541.19 1164.53 9511.43 1134.47 9489.57 1095.6C9468.31 1056.12 9457.69 1010.57 9457.69 958.951C9457.69 907.936 9468.62 862.994 9490.48 824.125C9512.95 784.649 9543.32 754.586 9581.58 733.937C9619.84 712.681 9662.66 702.052 9710.03 702.052C9757.4 702.052 9800.22 712.681 9838.48 733.937C9876.74 754.586 9906.8 784.345 9928.67 823.214C9951.14 862.083 9962.37 907.329 9962.37 958.951C9962.37 1010.57 9950.83 1056.12 9927.76 1095.6C9905.28 1134.47 9874.61 1164.53 9835.75 1185.79C9796.88 1207.04 9753.76 1217.67 9706.39 1217.67ZM9706.39 1144.79C9736.14 1144.79 9764.08 1137.81 9790.2 1123.84C9816.31 1109.87 9837.26 1088.92 9853.05 1060.98C9869.45 1033.05 9877.65 999.035 9877.65 958.951C9877.65 918.868 9869.76 884.858 9853.97 856.921C9838.18 828.984 9817.53 808.335 9792.02 794.973C9766.51 781.005 9738.88 774.021 9709.12 774.021C9678.75 774.021 9650.82 781.005 9625.31 794.973C9600.41 808.335 9580.37 828.984 9565.18 856.921C9550 884.858 9542.41 918.868 9542.41 958.951C9542.41 999.642 9549.7 1033.96 9564.27 1061.89C9579.45 1089.83 9599.5 1110.78 9624.4 1124.75C9649.3 1138.11 9676.63 1144.79 9706.39 1144.79ZM10736.4 710.251L10580.6 1209.47H10495L10374.7 813.193L10254.5 1209.47H10168.8L10012.2 710.251H10096.9L10211.7 1129.31L10335.6 710.251H10420.3L10541.4 1130.22L10654.4 710.251H10736.4Z" fill="#242B69"/>
<defs>
<linearGradient id="paint0_linear_595_223" x1="1378.88" y1="1473.65" x2="2629.05" y2="-211.869" gradientUnits="userSpaceOnUse">
<stop stop-color="#414FFF"/>
<stop offset="0.322115" stop-color="#96A7FF"/>
<stop offset="0.4375" stop-color="#FEFC4B"/>
<stop offset="0.514423" stop-color="#96A7FF"/>
<stop offset="0.600962" stop-color="#414FFF"/>
<stop offset="0.716346" stop-color="#121EB6"/>
<stop offset="0.831731" stop-color="#414FFF"/>
</linearGradient>
<linearGradient id="paint1_linear_595_223" x1="1378.88" y1="1473.65" x2="2629.05" y2="-211.869" gradientUnits="userSpaceOnUse">
<stop stop-color="#414FFF"/>
<stop offset="0.322115" stop-color="#96A7FF"/>
<stop offset="0.4375" stop-color="#FEFC4B"/>
<stop offset="0.514423" stop-color="#96A7FF"/>
<stop offset="0.600962" stop-color="#414FFF"/>
<stop offset="0.716346" stop-color="#121EB6"/>
<stop offset="0.831731" stop-color="#414FFF"/>
</linearGradient>
<linearGradient id="paint2_linear_595_223" x1="1378.88" y1="1473.65" x2="2629.05" y2="-211.869" gradientUnits="userSpaceOnUse">
<stop stop-color="#414FFF"/>
<stop offset="0.322115" stop-color="#96A7FF"/>
<stop offset="0.4375" stop-color="#FEFC4B"/>
<stop offset="0.514423" stop-color="#96A7FF"/>
<stop offset="0.600962" stop-color="#414FFF"/>
<stop offset="0.716346" stop-color="#121EB6"/>
<stop offset="0.831731" stop-color="#414FFF"/>
</linearGradient>
<linearGradient id="paint3_linear_595_223" x1="1378.88" y1="1473.65" x2="2629.05" y2="-211.869" gradientUnits="userSpaceOnUse">
<stop stop-color="#414FFF"/>
<stop offset="0.322115" stop-color="#96A7FF"/>
<stop offset="0.4375" stop-color="#FEFC4B"/>
<stop offset="0.514423" stop-color="#96A7FF"/>
<stop offset="0.600962" stop-color="#414FFF"/>
<stop offset="0.716346" stop-color="#121EB6"/>
<stop offset="0.831731" stop-color="#414FFF"/>
</linearGradient>
<linearGradient id="paint4_linear_595_223" x1="1378.88" y1="1473.65" x2="2629.05" y2="-211.869" gradientUnits="userSpaceOnUse">
<stop stop-color="#414FFF"/>
<stop offset="0.322115" stop-color="#96A7FF"/>
<stop offset="0.4375" stop-color="#FEFC4B"/>
<stop offset="0.514423" stop-color="#96A7FF"/>
<stop offset="0.600962" stop-color="#414FFF"/>
<stop offset="0.716346" stop-color="#121EB6"/>
<stop offset="0.831731" stop-color="#414FFF"/>
</linearGradient>
<linearGradient id="paint5_linear_595_223" x1="1378.88" y1="1473.65" x2="2629.05" y2="-211.869" gradientUnits="userSpaceOnUse">
<stop stop-color="#414FFF"/>
<stop offset="0.322115" stop-color="#96A7FF"/>
<stop offset="0.4375" stop-color="#FEFC4B"/>
<stop offset="0.514423" stop-color="#96A7FF"/>
<stop offset="0.600962" stop-color="#414FFF"/>
<stop offset="0.716346" stop-color="#121EB6"/>
<stop offset="0.831731" stop-color="#414FFF"/>
</linearGradient>
<linearGradient id="paint6_linear_595_223" x1="1378.88" y1="1473.65" x2="2629.05" y2="-211.869" gradientUnits="userSpaceOnUse">
<stop stop-color="#414FFF"/>
<stop offset="0.322115" stop-color="#96A7FF"/>
<stop offset="0.4375" stop-color="#FEFC4B"/>
<stop offset="0.514423" stop-color="#96A7FF"/>
<stop offset="0.600962" stop-color="#414FFF"/>
<stop offset="0.716346" stop-color="#121EB6"/>
<stop offset="0.831731" stop-color="#414FFF"/>
</linearGradient>
<linearGradient id="paint7_linear_595_223" x1="1378.88" y1="1473.65" x2="2629.05" y2="-211.869" gradientUnits="userSpaceOnUse">
<stop stop-color="#414FFF"/>
<stop offset="0.322115" stop-color="#96A7FF"/>
<stop offset="0.4375" stop-color="#FEFC4B"/>
<stop offset="0.514423" stop-color="#96A7FF"/>
<stop offset="0.600962" stop-color="#414FFF"/>
<stop offset="0.716346" stop-color="#121EB6"/>
<stop offset="0.831731" stop-color="#414FFF"/>
</linearGradient>
<linearGradient id="paint8_linear_595_223" x1="1378.88" y1="1473.65" x2="2629.05" y2="-211.869" gradientUnits="userSpaceOnUse">
<stop stop-color="#414FFF"/>
<stop offset="0.322115" stop-color="#96A7FF"/>
<stop offset="0.4375" stop-color="#FEFC4B"/>
<stop offset="0.514423" stop-color="#96A7FF"/>
<stop offset="0.600962" stop-color="#414FFF"/>
<stop offset="0.716346" stop-color="#121EB6"/>
<stop offset="0.831731" stop-color="#414FFF"/>
</linearGradient>
<linearGradient id="paint9_linear_595_223" x1="1378.88" y1="1473.65" x2="2629.05" y2="-211.869" gradientUnits="userSpaceOnUse">
<stop stop-color="#414FFF"/>
<stop offset="0.322115" stop-color="#96A7FF"/>
<stop offset="0.4375" stop-color="#FEFC4B"/>
<stop offset="0.514423" stop-color="#96A7FF"/>
<stop offset="0.600962" stop-color="#414FFF"/>
<stop offset="0.716346" stop-color="#121EB6"/>
<stop offset="0.831731" stop-color="#414FFF"/>
</linearGradient>
</defs>
</svg>
