<svg width="10749" height="1574" viewBox="0 0 10749 1574" fill="none" xmlns="http://www.w3.org/2000/svg">
<path d="M715.029 1192.77V808.195C715.029 801.213 698.684 759.009 693.183 751.238C656.327 699.488 556.92 706.273 525.643 760.034C522.304 765.753 510.752 795.888 510.752 800.306V1192.77H357.515V812.139C357.515 805.355 349.696 779.874 346.474 771.946C318.694 703.67 203.256 692.389 167.382 763.229C164.75 768.436 153.237 800.937 153.237 804.25V1192.77H0V752.974C0 730.097 37.3271 663.595 53.5545 645.017C116.107 573.309 237.321 557.335 325.256 580.291C374.567 593.149 411.265 625.769 438.102 668.092C487.138 583.367 569.729 566.091 662.221 573.349C772.434 582.026 864.416 675.507 864.416 788.473V1186.85L858.522 1192.77H715.029Z" fill="url(#paint0_linear_595_229)"/>
<path d="M2184.54 340.801V1192.78H2027.37V1133.61L1987.8 1166.86C1712.96 1295.41 1550.37 1080.48 1580.55 813.253C1603.34 611.106 1804.63 509.855 1984.23 603.06C1999.04 610.751 2011.38 624.083 2027.37 628.777V350.701C2027.37 349.399 2032.56 344.706 2031.3 340.84H2184.54V340.801ZM1857.55 700.84C1690.29 721.192 1683.8 1019.98 1830.83 1060.72C1891.85 1077.64 1986.66 1066.99 2015.66 1001.6C2031.77 965.307 2031.97 835.302 2026.9 792.9C2017.19 711.608 1925.64 692.596 1857.51 700.879L1857.55 700.84Z" fill="url(#paint1_linear_595_229)"/>
<path d="M4023.39 368.371V1190.76L4017.49 1196.68H3874.08V1133.57C3768.97 1243.93 3583.71 1222.08 3498.33 1098.59C3405.25 963.965 3416.02 697.289 3566.43 605.82C3639.74 561.209 3762.49 555.924 3836.05 601.796C3848.89 609.803 3859.62 624.358 3874.08 628.697V368.371H4023.39ZM3712.04 700.72C3544.31 723.321 3550.67 1044.75 3704.18 1065.49C3764.3 1073.62 3836.75 1063.91 3862.41 1001.55C3878.95 961.362 3879.54 824.533 3869.05 781.619C3851.09 708.254 3778.68 691.727 3712 700.681L3712.04 700.72Z" fill="url(#paint2_linear_595_229)"/>
<path d="M996.312 1115.54C845.078 957.966 906.531 643.72 1126.76 582.544C1391.66 508.982 1596.57 723.002 1525.57 986.838C1464 1215.65 1154.26 1280.14 996.312 1115.58V1115.54ZM1197.45 712.667C1033.21 732.665 1021.03 1021.15 1178.63 1060.68C1277.09 1085.37 1364.75 1036.3 1382.51 933.945C1405.46 801.573 1341.02 695.194 1197.45 712.667Z" fill="url(#paint3_linear_595_229)"/>
<path d="M3059.96 570.757C3197.56 557.898 3326.12 609.49 3382.39 741.704C3465.25 936.436 3370.21 1182.48 3144.75 1204.14C2696.4 1247.13 2685.04 605.822 3059.96 570.757ZM3087.43 708.769C2969.94 718.788 2938.47 818.855 2946.64 922.71C2961.42 1109.99 3236.03 1112 3260.11 933.399C3276.81 809.744 3227.42 696.857 3087.43 708.808V708.769Z" fill="url(#paint4_linear_595_229)"/>
<path d="M4898.72 570.614C5069.52 552.431 5216.36 632.817 5248.07 809.405C5283.43 1006.38 5185.24 1192.87 4972.51 1204.75C4553.39 1228.14 4547.1 608.046 4898.76 570.614H4898.72ZM4926.15 708.587C4750.48 731.228 4750.16 1044.45 4929.1 1062.51C5065.95 1076.32 5119.78 976.368 5107.36 852.003C5097.58 753.908 5023.71 696.005 4926.15 708.548V708.587Z" fill="url(#paint5_linear_595_229)"/>
<path d="M4231.64 581.389V981.74C4231.64 987.143 4244.01 1014.44 4248.02 1020.51C4283.5 1074.51 4426.56 1074 4450.84 1008.52C4452.89 1003 4459.53 977.756 4459.53 973.851V581.389H4604.91V1013.29C4604.91 1049.9 4570.53 1116.12 4544.2 1141.68C4458.31 1225.03 4229 1225.07 4143.07 1141.68C4117.26 1116.64 4082.37 1049.15 4082.37 1013.29V581.389H4231.68H4231.64Z" fill="url(#paint6_linear_595_229)"/>
<path d="M2754.26 581.403V1013.31C2754.26 1061.9 2710.69 1135.15 2671.51 1162.96C2597.21 1215.69 2404.05 1215.61 2325.94 1171.16C2286.57 1148.76 2231.72 1079.53 2231.72 1033.03V703.677H2377.1C2378.91 710.896 2380.64 717.601 2381.22 725.174C2387.71 807.729 2371.91 904.996 2381.03 985.698C2382.4 997.846 2391.4 1021.63 2398.87 1030.9C2427.86 1066.83 2552.93 1066.83 2585.54 1037.13C2591.44 1031.77 2608.92 1003.88 2608.92 997.491V581.363H2754.3L2754.26 581.403Z" fill="url(#paint7_linear_595_229)"/>
<path d="M2231.68 640.544C2233.96 626.345 2228.46 613.053 2227.6 599.287C2226.03 574.792 2223.86 481.43 2229.52 462.852C2246.42 407.395 2379.18 479.103 2388.85 394.024C2395.37 336.397 2383.31 268.278 2389.71 209.507C2393.33 193.178 2411.52 188.169 2425.98 186.749C2466.61 182.844 2563.19 182.213 2603.07 186.867C2621.26 188.997 2630.45 198.306 2632.54 216.45C2639.26 274.905 2627.43 345.863 2632.38 405.778C2630.26 416.98 2613.64 429.562 2602.79 431.297C2556.04 438.713 2462.99 419.938 2424.21 437.411C2407.91 444.787 2402.64 455.516 2400.68 472.95C2395.61 517.56 2407.24 575.621 2400.44 618.653C2399.54 624.452 2391.25 640.584 2386.92 640.584H2231.72L2231.68 640.544Z" fill="url(#paint8_linear_595_229)"/>
<path d="M2808.17 166.13C2803.81 170.508 2790.33 174.492 2783.81 175.241C2759.29 177.963 2689.47 178.515 2665.62 175.359C2657.21 174.215 2645.5 166.958 2642.36 159.266C2638.59 150.195 2638.08 42.1592 2640.08 27.0129C2641.22 18.572 2648.45 6.81785 2656.11 3.66238C2666.02 -0.479171 2771.2 -0.400236 2787.74 1.49304C2801.26 3.07078 2808.25 6.62063 2813.08 19.4397C2819.65 36.8737 2819.57 120.296 2817.21 141.714C2816.5 148.262 2812.49 161.791 2808.13 166.169L2808.17 166.13Z" fill="url(#paint9_linear_595_229)"/>
<path d="M6059.9 1068.44H5782.96L5731.94 1209.64H5644.49L5874.06 578.325H5969.71L6198.37 1209.64H6110.91L6059.9 1068.44ZM6036.21 1001.02L5921.43 680.356L5806.64 1001.02H6036.21ZM6504.3 702.219C6547.42 702.219 6585.08 711.633 6617.27 730.46C6650.06 749.287 6674.35 772.973 6690.15 801.517V710.418H6773.96V1220.57C6773.96 1266.12 6764.24 1306.51 6744.8 1341.73C6725.37 1377.57 6697.43 1405.5 6660.99 1425.54C6625.16 1445.59 6583.26 1455.61 6535.28 1455.61C6469.69 1455.61 6415.03 1440.12 6371.3 1409.15C6327.57 1378.17 6301.76 1335.96 6293.87 1282.52H6375.85C6384.96 1312.89 6403.79 1337.18 6432.34 1355.4C6460.88 1374.23 6495.19 1383.64 6535.28 1383.64C6580.83 1383.64 6617.87 1369.37 6646.42 1340.82C6675.57 1312.28 6690.15 1272.19 6690.15 1220.57V1115.81C6673.75 1144.96 6649.45 1169.25 6617.27 1188.69C6585.08 1208.12 6547.42 1217.84 6504.3 1217.84C6459.97 1217.84 6419.58 1206.91 6383.14 1185.04C6347.31 1163.18 6319.07 1132.51 6298.42 1093.03C6277.77 1053.56 6267.45 1008.62 6267.45 958.207C6267.45 907.192 6277.77 862.553 6298.42 824.292C6319.07 785.423 6347.31 755.361 6383.14 734.104C6419.58 712.848 6459.97 702.219 6504.3 702.219ZM6690.15 959.118C6690.15 921.464 6682.55 888.669 6667.37 860.732C6652.19 832.795 6631.54 811.538 6605.42 796.962C6579.92 781.779 6551.67 774.188 6520.7 774.188C6489.73 774.188 6461.49 781.476 6435.98 796.051C6410.47 810.627 6390.13 831.884 6374.94 859.821C6359.76 887.758 6352.17 920.553 6352.17 958.207C6352.17 996.469 6359.76 1029.87 6374.94 1058.42C6390.13 1086.35 6410.47 1107.91 6435.98 1123.1C6461.49 1137.67 6489.73 1144.96 6520.7 1144.96C6551.67 1144.96 6579.92 1137.67 6605.42 1123.1C6631.54 1107.91 6652.19 1086.35 6667.37 1058.42C6682.55 1029.87 6690.15 996.772 6690.15 959.118ZM7369.54 940.899C7369.54 956.689 7368.63 973.39 7366.81 991.003H6967.8C6970.83 1040.2 6987.54 1078.76 7017.9 1106.7C7048.88 1134.03 7086.23 1147.69 7129.95 1147.69C7165.79 1147.69 7195.54 1139.49 7219.23 1123.1C7243.52 1106.09 7260.53 1083.62 7270.25 1055.68H7359.52C7346.16 1103.66 7319.44 1142.83 7279.36 1173.2C7239.27 1202.96 7189.47 1217.84 7129.95 1217.84C7082.58 1217.84 7040.07 1207.21 7002.41 1185.95C6965.37 1164.7 6936.22 1134.64 6914.96 1095.77C6893.7 1056.29 6883.08 1010.74 6883.08 959.118C6883.08 907.496 6893.4 862.25 6914.05 823.381C6934.7 784.512 6963.55 754.753 7000.59 734.104C7038.25 712.848 7081.37 702.219 7129.95 702.219C7177.32 702.219 7219.23 712.544 7255.67 733.193C7292.11 753.842 7320.05 782.386 7339.48 818.826C7359.52 854.658 7369.54 895.349 7369.54 940.899ZM7283.91 923.59C7283.91 892.009 7276.93 864.983 7262.96 842.512C7248.99 819.433 7229.86 802.125 7205.57 790.585C7181.88 778.439 7155.46 772.366 7126.31 772.366C7084.4 772.366 7048.57 785.727 7018.81 812.449C6989.66 839.171 6972.96 876.218 6968.71 923.59H7283.91ZM7722.2 701.309C7782.94 701.309 7832.13 719.832 7869.78 756.879C7907.44 793.318 7926.26 846.156 7926.26 915.391V1209.64H7844.28V927.234C7844.28 877.433 7831.82 839.475 7806.92 813.36C7782.02 786.638 7748.01 773.277 7704.89 773.277C7661.17 773.277 7626.25 786.941 7600.13 814.271C7574.62 841.601 7561.87 881.381 7561.87 933.611V1209.64H7478.97V710.418H7561.87V781.476C7578.27 755.968 7600.43 736.23 7628.37 722.261C7656.92 708.293 7688.19 701.309 7722.2 701.309ZM8162.8 778.743V1072.99C8162.8 1097.28 8167.96 1114.59 8178.29 1124.92C8188.61 1134.64 8206.53 1139.49 8232.04 1139.49H8293.07V1209.64H8218.37C8172.21 1209.64 8137.6 1199.01 8114.52 1177.76C8091.44 1156.5 8079.9 1121.58 8079.9 1072.99V778.743H8015.22V710.418H8079.9V584.702H8162.8V710.418H8293.07V778.743H8162.8ZM8995.32 574.681V642.094H8719.29V856.177H8943.39V923.59H8719.29V1209.64H8636.39V574.681H8995.32ZM9178.34 1142.23H9400.62V1209.64H9095.44V574.681H9178.34V1142.23ZM9706.39 1217.84C9659.62 1217.84 9617.11 1207.21 9578.85 1185.95C9541.19 1164.7 9511.43 1134.64 9489.57 1095.77C9468.31 1056.29 9457.69 1010.74 9457.69 959.118C9457.69 908.103 9468.62 863.161 9490.48 824.292C9512.95 784.816 9543.32 754.753 9581.58 734.104C9619.84 712.848 9662.66 702.219 9710.03 702.219C9757.4 702.219 9800.22 712.848 9838.48 734.104C9876.74 754.753 9906.8 784.512 9928.67 823.381C9951.14 862.25 9962.37 907.496 9962.37 959.118C9962.37 1010.74 9950.83 1056.29 9927.76 1095.77C9905.28 1134.64 9874.61 1164.7 9835.75 1185.95C9796.88 1207.21 9753.76 1217.84 9706.39 1217.84ZM9706.39 1144.96C9736.14 1144.96 9764.08 1137.98 9790.2 1124.01C9816.31 1110.04 9837.26 1089.09 9853.05 1061.15C9869.45 1033.21 9877.65 999.202 9877.65 959.118C9877.65 919.035 9869.76 885.025 9853.97 857.088C9838.18 829.151 9817.53 808.502 9792.02 795.14C9766.51 781.172 9738.88 774.188 9709.12 774.188C9678.75 774.188 9650.82 781.172 9625.31 795.14C9600.41 808.502 9580.37 829.151 9565.18 857.088C9550 885.025 9542.41 919.035 9542.41 959.118C9542.41 999.809 9549.7 1034.12 9564.27 1062.06C9579.45 1090 9599.5 1110.95 9624.4 1124.92C9649.3 1138.28 9676.63 1144.96 9706.39 1144.96ZM10736.4 710.418L10580.6 1209.64H10495L10374.7 813.36L10254.5 1209.64H10168.8L10012.2 710.418H10096.9L10211.7 1129.47L10335.6 710.418H10420.3L10541.4 1130.38L10654.4 710.418H10736.4Z" fill="url(#paint10_radial_595_229)"/>
<defs>
<linearGradient id="paint0_linear_595_229" x1="1378.88" y1="1473.81" x2="2629.05" y2="-211.702" gradientUnits="userSpaceOnUse">
<stop stop-color="white"/>
<stop offset="0.293269" stop-color="#FAFBBC"/>
<stop offset="0.384615" stop-color="#FEFC4B"/>
<stop offset="0.524038" stop-color="#414FFF"/>
<stop offset="0.620192" stop-color="#96A7FF"/>
<stop offset="1" stop-color="white"/>
</linearGradient>
<linearGradient id="paint1_linear_595_229" x1="1378.88" y1="1473.81" x2="2629.05" y2="-211.702" gradientUnits="userSpaceOnUse">
<stop stop-color="white"/>
<stop offset="0.293269" stop-color="#FAFBBC"/>
<stop offset="0.384615" stop-color="#FEFC4B"/>
<stop offset="0.524038" stop-color="#414FFF"/>
<stop offset="0.620192" stop-color="#96A7FF"/>
<stop offset="1" stop-color="white"/>
</linearGradient>
<linearGradient id="paint2_linear_595_229" x1="1378.88" y1="1473.81" x2="2629.05" y2="-211.702" gradientUnits="userSpaceOnUse">
<stop stop-color="white"/>
<stop offset="0.293269" stop-color="#FAFBBC"/>
<stop offset="0.384615" stop-color="#FEFC4B"/>
<stop offset="0.524038" stop-color="#414FFF"/>
<stop offset="0.620192" stop-color="#96A7FF"/>
<stop offset="1" stop-color="white"/>
</linearGradient>
<linearGradient id="paint3_linear_595_229" x1="1378.88" y1="1473.81" x2="2629.05" y2="-211.702" gradientUnits="userSpaceOnUse">
<stop stop-color="white"/>
<stop offset="0.293269" stop-color="#FAFBBC"/>
<stop offset="0.384615" stop-color="#FEFC4B"/>
<stop offset="0.524038" stop-color="#414FFF"/>
<stop offset="0.620192" stop-color="#96A7FF"/>
<stop offset="1" stop-color="white"/>
</linearGradient>
<linearGradient id="paint4_linear_595_229" x1="1378.88" y1="1473.81" x2="2629.05" y2="-211.702" gradientUnits="userSpaceOnUse">
<stop stop-color="white"/>
<stop offset="0.293269" stop-color="#FAFBBC"/>
<stop offset="0.384615" stop-color="#FEFC4B"/>
<stop offset="0.524038" stop-color="#414FFF"/>
<stop offset="0.620192" stop-color="#96A7FF"/>
<stop offset="1" stop-color="white"/>
</linearGradient>
<linearGradient id="paint5_linear_595_229" x1="1378.88" y1="1473.81" x2="2629.05" y2="-211.702" gradientUnits="userSpaceOnUse">
<stop stop-color="white"/>
<stop offset="0.293269" stop-color="#FAFBBC"/>
<stop offset="0.384615" stop-color="#FEFC4B"/>
<stop offset="0.524038" stop-color="#414FFF"/>
<stop offset="0.620192" stop-color="#96A7FF"/>
<stop offset="1" stop-color="white"/>
</linearGradient>
<linearGradient id="paint6_linear_595_229" x1="1378.88" y1="1473.81" x2="2629.05" y2="-211.702" gradientUnits="userSpaceOnUse">
<stop stop-color="white"/>
<stop offset="0.293269" stop-color="#FAFBBC"/>
<stop offset="0.384615" stop-color="#FEFC4B"/>
<stop offset="0.524038" stop-color="#414FFF"/>
<stop offset="0.620192" stop-color="#96A7FF"/>
<stop offset="1" stop-color="white"/>
</linearGradient>
<linearGradient id="paint7_linear_595_229" x1="1378.88" y1="1473.81" x2="2629.05" y2="-211.702" gradientUnits="userSpaceOnUse">
<stop stop-color="white"/>
<stop offset="0.293269" stop-color="#FAFBBC"/>
<stop offset="0.384615" stop-color="#FEFC4B"/>
<stop offset="0.524038" stop-color="#414FFF"/>
<stop offset="0.620192" stop-color="#96A7FF"/>
<stop offset="1" stop-color="white"/>
</linearGradient>
<linearGradient id="paint8_linear_595_229" x1="1378.88" y1="1473.81" x2="2629.05" y2="-211.702" gradientUnits="userSpaceOnUse">
<stop stop-color="white"/>
<stop offset="0.293269" stop-color="#FAFBBC"/>
<stop offset="0.384615" stop-color="#FEFC4B"/>
<stop offset="0.524038" stop-color="#414FFF"/>
<stop offset="0.620192" stop-color="#96A7FF"/>
<stop offset="1" stop-color="white"/>
</linearGradient>
<linearGradient id="paint9_linear_595_229" x1="1378.88" y1="1473.81" x2="2629.05" y2="-211.702" gradientUnits="userSpaceOnUse">
<stop stop-color="white"/>
<stop offset="0.293269" stop-color="#FAFBBC"/>
<stop offset="0.384615" stop-color="#FEFC4B"/>
<stop offset="0.524038" stop-color="#414FFF"/>
<stop offset="0.620192" stop-color="#96A7FF"/>
<stop offset="1" stop-color="white"/>
</linearGradient>
<radialGradient id="paint10_radial_595_229" cx="0" cy="0" r="1" gradientTransform="matrix(2492.41 1612.74 -429.014 663.024 7416.23 207.64)" gradientUnits="userSpaceOnUse">
<stop offset="0.0144231" stop-color="#96A9FF"/>
<stop offset="1" stop-color="#F8F9FF"/>
</radialGradient>
</defs>
</svg>
