<svg width="10749" height="1574" viewBox="0 0 10749 1574" fill="none" xmlns="http://www.w3.org/2000/svg">
<path d="M715.016 1192.54V807.964C715.016 800.982 698.671 758.777 693.17 751.006C656.316 699.256 556.91 706.04 525.634 759.802C522.294 765.522 510.743 795.657 510.743 800.075V1192.54H357.508V811.908C357.508 805.124 349.689 779.643 346.467 771.715C318.689 703.437 203.252 692.156 167.379 762.997C164.747 768.204 153.235 800.706 153.235 804.019V1192.54H0V752.742C0 729.864 37.3264 663.362 53.5535 644.784C116.105 573.074 237.317 557.099 325.25 580.056C374.56 592.915 411.258 625.535 438.094 667.858C487.129 583.133 569.718 565.856 662.209 573.114C772.42 581.791 864.4 675.274 864.4 788.242V1186.63L858.507 1192.54H715.016Z" fill="#242B69"/>
<path d="M2184.5 340.562V1192.55H2027.33V1133.39L1987.77 1166.64C1712.93 1295.19 1550.34 1080.26 1580.52 813.023C1603.31 610.872 1804.59 509.619 1984.19 602.825C1999.01 610.517 2011.34 623.849 2027.33 628.543V350.462C2027.33 349.16 2032.52 344.467 2031.26 340.601H2184.5V340.562ZM1857.52 700.607C1690.26 720.96 1683.77 1019.75 1830.8 1060.49C1891.82 1077.42 1986.63 1066.77 2015.63 1001.37C2031.73 965.079 2031.93 835.072 2026.86 792.669C2017.16 711.375 1925.61 692.363 1857.48 700.646L1857.52 700.607Z" fill="#242B69"/>
<path d="M4023.32 368.132V1190.54L4017.42 1196.46H3874.01V1133.35C3768.91 1243.71 3583.65 1221.86 3498.27 1098.36C3405.19 963.737 3415.96 697.056 3566.36 605.585C3639.68 560.974 3762.42 555.688 3835.98 601.562C3848.82 609.569 3859.55 624.124 3874.01 628.463V368.132H4023.32ZM3711.97 700.488C3544.24 723.089 3550.61 1044.52 3704.12 1065.27C3764.23 1073.39 3836.68 1063.69 3862.34 1001.33C3878.88 961.134 3879.47 824.303 3868.98 781.387C3851.02 708.021 3778.61 691.494 3711.93 700.448L3711.97 700.488Z" fill="#242B69"/>
<path d="M996.294 1115.32C845.063 957.738 906.514 643.487 1126.74 582.309C1391.64 508.746 1596.54 722.769 1525.54 986.611C1463.97 1215.43 1154.24 1279.92 996.294 1115.36V1115.32ZM1197.42 712.435C1033.19 732.433 1021.01 1020.93 1178.6 1060.45C1277.07 1085.14 1364.73 1036.07 1382.48 933.716C1405.43 801.342 1340.99 694.961 1197.42 712.435Z" fill="#242B69"/>
<path d="M3059.91 570.522C3197.5 557.663 3326.06 609.256 3382.33 741.472C3465.19 936.208 3370.15 1182.26 3144.7 1203.91C2696.35 1246.91 2684.99 605.587 3059.91 570.522ZM3087.37 708.536C2969.89 718.555 2938.42 818.625 2946.59 922.481C2961.36 1109.76 3235.97 1111.77 3260.05 933.17C3276.75 809.513 3227.36 696.624 3087.37 708.576V708.536Z" fill="#242B69"/>
<path d="M4898.64 570.379C5069.43 552.196 5216.26 632.583 5247.97 809.174C5283.33 1006.16 5185.14 1192.65 4972.42 1204.52C4553.31 1227.91 4547.02 607.812 4898.67 570.379H4898.64ZM4926.06 708.355C4750.39 730.996 4750.08 1044.22 4929.01 1062.29C5065.86 1076.09 5119.69 976.141 5107.27 851.773C5097.49 753.676 5023.62 695.772 4926.06 708.315V708.355Z" fill="#242B69"/>
<path d="M4231.56 581.155V981.512C4231.56 986.916 4243.94 1014.21 4247.94 1020.29C4283.42 1074.28 4426.48 1073.77 4450.76 1008.29C4452.81 1002.77 4459.45 977.528 4459.45 973.623V581.155H4604.82V1013.07C4604.82 1049.67 4570.44 1115.9 4544.12 1141.46C4458.23 1224.8 4228.93 1224.84 4143 1141.46C4117.18 1116.41 4082.29 1048.92 4082.29 1013.07V581.155H4231.6H4231.56Z" fill="#242B69"/>
<path d="M2754.21 581.168V1013.08C2754.21 1061.68 2710.64 1134.92 2671.46 1162.73C2597.16 1215.47 2404.01 1215.39 2325.9 1170.94C2286.53 1148.53 2231.68 1079.31 2231.68 1032.8V703.445H2377.06C2378.86 710.663 2380.59 717.369 2381.18 724.942C2387.66 807.498 2371.87 904.767 2380.99 985.47C2382.36 997.619 2391.36 1021.4 2398.82 1030.67C2427.82 1066.61 2552.88 1066.61 2585.49 1036.9C2591.39 1031.54 2608.87 1003.65 2608.87 997.264V581.129H2754.25L2754.21 581.168Z" fill="#242B69"/>
<path d="M2231.64 640.311C2233.92 626.111 2228.42 612.818 2227.56 599.052C2225.99 574.558 2223.82 481.193 2229.48 462.615C2246.38 407.157 2379.14 478.866 2388.81 393.785C2395.33 336.158 2383.27 268.038 2389.67 209.266C2393.29 192.936 2411.48 187.927 2425.94 186.507C2466.56 182.602 2563.14 181.971 2603.02 186.625C2621.21 188.755 2630.41 198.064 2632.49 216.208C2639.21 274.664 2627.38 345.624 2632.33 405.54C2630.21 416.742 2613.59 429.324 2602.75 431.06C2555.99 438.475 2462.95 419.7 2424.17 437.174C2407.86 444.55 2402.6 455.279 2400.63 472.713C2395.57 517.324 2407.2 575.386 2400.4 618.419C2399.49 624.218 2391.2 640.35 2386.88 640.35H2231.68L2231.64 640.311Z" fill="#414FFF"/>
<path d="M2808.12 165.887C2803.76 170.266 2790.28 174.25 2783.76 174.999C2759.24 177.721 2689.42 178.273 2665.57 175.117C2657.17 173.973 2645.46 166.716 2642.31 159.024C2638.54 149.952 2638.03 41.9148 2640.03 26.7683C2641.17 18.3272 2648.4 6.57285 2656.07 3.41732C2665.97 -0.724301 2771.15 -0.645365 2787.69 1.24795C2801.21 2.82571 2808.2 6.37563 2813.03 19.1949C2819.59 36.6292 2819.52 120.053 2817.16 141.472C2816.45 148.019 2812.44 161.549 2808.08 165.927L2808.12 165.887Z" fill="#414FFF"/>
<path d="M6059.9 1068.19H5782.96L5731.94 1209.4H5644.49L5874.06 578.08H5969.71L6198.37 1209.4H6110.91L6059.9 1068.19ZM6036.21 1000.78L5921.43 680.111L5806.64 1000.78H6036.21ZM6504.3 701.974C6547.42 701.974 6585.08 711.388 6617.27 730.215C6650.06 749.042 6674.35 772.728 6690.15 801.272V710.173H6773.96V1220.33C6773.96 1265.88 6764.24 1306.26 6744.8 1341.49C6725.37 1377.32 6697.43 1405.26 6660.99 1425.3C6625.16 1445.34 6583.26 1455.36 6535.28 1455.36C6469.69 1455.36 6415.03 1439.88 6371.3 1408.9C6327.57 1377.93 6301.76 1335.72 6293.87 1282.27H6375.85C6384.96 1312.64 6403.79 1336.93 6432.34 1355.15C6460.88 1373.98 6495.19 1383.39 6535.28 1383.39C6580.83 1383.39 6617.87 1369.12 6646.42 1340.58C6675.57 1312.03 6690.15 1271.95 6690.15 1220.33V1115.56C6673.75 1144.71 6649.45 1169.01 6617.27 1188.44C6585.08 1207.88 6547.42 1217.59 6504.3 1217.59C6459.97 1217.59 6419.58 1206.66 6383.14 1184.8C6347.31 1162.93 6319.07 1132.26 6298.42 1092.79C6277.77 1053.31 6267.45 1008.37 6267.45 957.962C6267.45 906.947 6277.77 862.309 6298.42 824.047C6319.07 785.178 6347.31 755.116 6383.14 733.859C6419.58 712.603 6459.97 701.974 6504.3 701.974ZM6690.15 958.873C6690.15 921.219 6682.55 888.424 6667.37 860.487C6652.19 832.55 6631.54 811.293 6605.42 796.717C6579.92 781.534 6551.67 773.943 6520.7 773.943C6489.73 773.943 6461.49 781.231 6435.98 795.806C6410.47 810.382 6390.13 831.639 6374.94 859.576C6359.76 887.513 6352.17 920.308 6352.17 957.962C6352.17 996.224 6359.76 1029.63 6374.94 1058.17C6390.13 1086.11 6410.47 1107.67 6435.98 1122.85C6461.49 1137.43 6489.73 1144.71 6520.7 1144.71C6551.67 1144.71 6579.92 1137.43 6605.42 1122.85C6631.54 1107.67 6652.19 1086.11 6667.37 1058.17C6682.55 1029.63 6690.15 996.527 6690.15 958.873ZM7369.54 940.654C7369.54 956.444 7368.63 973.145 7366.81 990.758H6967.8C6970.83 1039.95 6987.54 1078.52 7017.9 1106.45C7048.88 1133.78 7086.23 1147.45 7129.95 1147.45C7165.79 1147.45 7195.54 1139.25 7219.23 1122.85C7243.52 1105.85 7260.53 1083.38 7270.25 1055.44H7359.52C7346.16 1103.42 7319.44 1142.59 7279.36 1172.96C7239.27 1202.71 7189.47 1217.59 7129.95 1217.59C7082.58 1217.59 7040.07 1206.97 7002.41 1185.71C6965.37 1164.45 6936.22 1134.39 6914.96 1095.52C6893.7 1056.05 6883.08 1010.5 6883.08 958.873C6883.08 907.251 6893.4 862.005 6914.05 823.136C6934.7 784.267 6963.55 754.508 7000.59 733.859C7038.25 712.603 7081.37 701.974 7129.95 701.974C7177.32 701.974 7219.23 712.299 7255.67 732.948C7292.11 753.597 7320.05 782.142 7339.48 818.581C7359.52 854.413 7369.54 895.104 7369.54 940.654ZM7283.91 923.345C7283.91 891.764 7276.93 864.738 7262.96 842.267C7248.99 819.188 7229.86 801.88 7205.57 790.34C7181.88 778.194 7155.46 772.121 7126.31 772.121C7084.4 772.121 7048.57 785.482 7018.81 812.204C6989.66 838.926 6972.96 875.973 6968.71 923.345H7283.91ZM7722.2 701.064C7782.94 701.064 7832.13 719.587 7869.78 756.634C7907.44 793.073 7926.26 845.911 7926.26 915.146V1209.4H7844.28V926.989C7844.28 877.188 7831.82 839.23 7806.92 813.115C7782.02 786.393 7748.01 773.032 7704.89 773.032C7661.17 773.032 7626.25 786.696 7600.13 814.026C7574.62 841.356 7561.87 881.136 7561.87 933.366V1209.4H7478.97V710.173H7561.87V781.231C7578.27 755.723 7600.43 735.985 7628.37 722.016C7656.92 708.048 7688.19 701.064 7722.2 701.064ZM8162.8 778.498V1072.75C8162.8 1097.04 8167.96 1114.35 8178.29 1124.67C8188.61 1134.39 8206.53 1139.25 8232.04 1139.25H8293.07V1209.4H8218.37C8172.21 1209.4 8137.6 1198.77 8114.52 1177.51C8091.44 1156.25 8079.9 1121.33 8079.9 1072.75V778.498H8015.22V710.173H8079.9V584.457H8162.8V710.173H8293.07V778.498H8162.8ZM8995.32 574.436V641.849H8719.29V855.932H8943.39V923.345H8719.29V1209.4H8636.39V574.436H8995.32ZM9178.34 1141.98H9400.62V1209.4H9095.44V574.436H9178.34V1141.98ZM9706.39 1217.59C9659.62 1217.59 9617.11 1206.97 9578.85 1185.71C9541.19 1164.45 9511.43 1134.39 9489.57 1095.52C9468.31 1056.05 9457.69 1010.5 9457.69 958.873C9457.69 907.858 9468.62 862.916 9490.48 824.047C9512.95 784.571 9543.32 754.508 9581.58 733.859C9619.84 712.603 9662.66 701.974 9710.03 701.974C9757.4 701.974 9800.22 712.603 9838.48 733.859C9876.74 754.508 9906.8 784.267 9928.67 823.136C9951.14 862.005 9962.37 907.251 9962.37 958.873C9962.37 1010.5 9950.83 1056.05 9927.76 1095.52C9905.28 1134.39 9874.61 1164.45 9835.75 1185.71C9796.88 1206.97 9753.76 1217.59 9706.39 1217.59ZM9706.39 1144.71C9736.14 1144.71 9764.08 1137.73 9790.2 1123.76C9816.31 1109.79 9837.26 1088.84 9853.05 1060.9C9869.45 1032.97 9877.65 998.957 9877.65 958.873C9877.65 918.79 9869.76 884.78 9853.97 856.843C9838.18 828.906 9817.53 808.257 9792.02 794.895C9766.51 780.927 9738.88 773.943 9709.12 773.943C9678.75 773.943 9650.82 780.927 9625.31 794.895C9600.41 808.257 9580.37 828.906 9565.18 856.843C9550 884.78 9542.41 918.79 9542.41 958.873C9542.41 999.564 9549.7 1033.88 9564.27 1061.82C9579.45 1089.75 9599.5 1110.7 9624.4 1124.67C9649.3 1138.03 9676.63 1144.71 9706.39 1144.71ZM10736.4 710.173L10580.6 1209.4H10495L10374.7 813.115L10254.5 1209.4H10168.8L10012.2 710.173H10096.9L10211.7 1129.23L10335.6 710.173H10420.3L10541.4 1130.14L10654.4 710.173H10736.4Z" fill="#242B69"/>
</svg>
